<svg width="16" height="16" viewBox="0 0 16 16" fill="none" xmlns="http://www.w3.org/2000/svg">
<path d="M8 10.2861C9.57786 10.2861 10.8573 11.5647 10.8574 13.1426C10.8574 14.7205 9.57796 16 8 16C6.42204 16 5.14258 14.7205 5.14258 13.1426C5.14273 11.5647 6.42214 10.2861 8 10.2861ZM6.71191 11.1533V15.1426H9.15039V14.7139H7.19434V13.3584H8.99512V12.9297H7.19434V11.582H9.11914V11.1533H6.71191ZM2.85742 5.14258C4.43525 5.14273 5.71387 6.42214 5.71387 8C5.71387 9.57786 4.43525 10.8573 2.85742 10.8574C1.27947 10.8574 0 9.57796 0 8C2.41596e-08 6.42204 1.27947 5.14258 2.85742 5.14258ZM13.1426 5.14258C14.7205 5.14258 16 6.42204 16 8C16 9.57796 14.7205 10.8574 13.1426 10.8574C11.5647 10.8573 10.2861 9.57786 10.2861 8C10.2861 6.42214 11.5647 5.14273 13.1426 5.14258ZM1.16895 6.06738L2.61035 8.41309V10.0576H3.09375V8.41309L4.53516 6.06738H3.98145L2.875 7.92969H2.82812L1.72168 6.06738H1.16895ZM12.083 6.01074V10H12.5664V8.54297H13.4385C13.7488 8.54297 14.0035 8.48596 14.2021 8.37305C14.4007 8.25885 14.5478 8.10606 14.6426 7.91406C14.7387 7.72185 14.7871 7.50753 14.7871 7.27246C14.7871 7.0375 14.7386 6.82463 14.6426 6.63379C14.5465 6.44292 14.3982 6.29136 14.1982 6.17969C13.9997 6.06692 13.7442 6.0108 13.4316 6.01074H12.083ZM13.416 6.43848C13.6326 6.43853 13.8064 6.47525 13.9375 6.54785C14.0685 6.61919 14.1632 6.71801 14.2217 6.84375C14.2814 6.96965 14.3115 7.11283 14.3115 7.27246C14.3115 7.4322 14.2814 7.57585 14.2217 7.70312C14.1632 7.82907 14.0693 7.92891 13.9395 8.00293C13.8097 8.0769 13.6379 8.11421 13.4238 8.11426H12.5664V6.43848H13.416ZM8 0C9.57796 0 10.8574 1.27947 10.8574 2.85742C10.8573 4.43525 9.57786 5.71387 8 5.71387C6.42214 5.71387 5.14273 4.43525 5.14258 2.85742C5.14258 1.27947 6.42204 2.416e-08 8 0ZM6.49316 0.867188V1.2959H7.74805V4.85742H8.23145V1.2959H9.48535V0.867188H6.49316Z" fill="white"/>
</svg>
