<svg width="280" height="280" viewBox="0 0 280 280" fill="none" xmlns="http://www.w3.org/2000/svg">
<path d="M140 180C167.614 180 190 202.386 190 230C190 257.614 167.614 280 140 280C112.386 280 90 257.614 90 230C90 202.386 112.386 180 140 180ZM117.454 195.182V265H160.137V257.5H125.909V233.772H157.409V226.272H125.909V202.682H159.591V195.182H117.454ZM50 90C77.6142 90 100 112.386 100 140C100 167.614 77.6142 190 50 190C22.3858 190 0 167.614 0 140C0 112.386 22.3858 90 50 90ZM230 90C257.614 90 280 112.386 280 140C280 167.614 257.614 190 230 190C202.386 190 180 167.614 180 140C180 112.386 202.386 90 230 90ZM20.4541 106.182L45.6816 147.228V176H54.1367V147.228L79.3633 106.182H69.6816L50.3184 138.772H49.5L30.1367 106.182H20.4541ZM211.454 105.182V175H219.909V149.5H235.182C240.613 149.5 245.069 148.511 248.546 146.534C252.023 144.534 254.591 141.852 256.25 138.488C257.932 135.125 258.772 131.386 258.772 127.272C258.772 123.159 257.932 119.432 256.25 116.091C254.568 112.75 251.977 110.102 248.478 108.147C245 106.17 240.523 105.182 235.046 105.182H211.454ZM234.772 112.682C238.568 112.682 241.614 113.318 243.909 114.591C246.205 115.841 247.864 117.568 248.887 119.772C249.932 121.977 250.454 124.477 250.454 127.272C250.454 130.068 249.932 132.579 248.887 134.807C247.864 137.011 246.216 138.761 243.943 140.057C241.671 141.352 238.659 142 234.909 142H219.909V112.682H234.772ZM140 0C167.614 0 190 22.3858 190 50C190 77.6142 167.614 100 140 100C112.386 100 90 77.6142 90 50C90 22.3858 112.386 0 140 0ZM113.637 15.1816V22.6816H135.591V85H144.046V22.6816H166V15.1816H113.637Z" fill="white"/>
</svg>
